<?xml version="1.0" encoding="UTF-8"?>
<svg xmlns="http://www.w3.org/2000/svg" viewBox="0 0 1095 1095" width="1095" height="1095">
<path d="M843.62 164.5C846.72 169.6 846.48 180.12 844.06 185.5C839.58 188.28 832.68 187.42 827.5 187.42C815.5 187.42 803.5 187.42 791.5 187.42C750.83 187.42 710.17 187.42 669.5 187.42C658.5 187.42 647.5 187.42 636.5 187.42C631.1 187.42 624.28 188.16 619.5 185.62C617.72 178.9 616.76 170.91 619.87 164.5C625.78 163.05 632.38 163.72 638.5 163.72C648.83 163.72 659.17 163.72 669.5 163.72C703.5 163.72 737.5 163.72 771.5 163.72C787.5 163.72 803.5 163.72 819.5 163.72C827.15 163.72 836.26 162.41 843.62 164.5ZM842.5 166.14C836.28 165.03 829.81 165.53 823.5 165.53C813.17 165.53 802.83 165.53 792.5 165.53C759.83 165.53 727.17 165.53 694.5 165.53C678.17 165.53 661.83 165.53 645.5 165.53C637.56 165.53 628.38 164.25 620.77 166.5C619.71 172.58 619.64 178.51 621.26 184.5C637.73 187.44 655.75 185.59 672.5 185.59C703.83 185.59 735.17 185.59 766.5 185.59C782.83 185.59 799.17 185.59 815.5 185.59C824.35 185.59 833.95 186.66 842.5 184.25C844.16 178.28 844.49 172.05 842.5 166.14ZM518.02 167.15C523 173.2 527.58 184.96 525.5 192.52C434.83 192.52 344.17 192.52 253.5 192.52C251.4 184.51 256.03 173.64 261.02 167.15C346.68 167.15 432.35 167.15 518.02 167.15ZM517.5 169.19C432.17 169.19 346.83 169.19 261.5 169.19C258.71 176.15 253.86 183.05 255.19 190.67C344.76 190.67 434.33 190.67 523.9 190.67C526.01 183.78 520.39 175.43 517.5 169.19ZM887.81 349.5C888.86 365.28 886.68 383.69 885.36 399.55C884.29 412.51 884.72 425.53 883.98 438.5C882.55 463.59 882.08 489.32 883.09 514.5C883.66 528.8 883.95 543.15 884.08 557.5C884.16 565.43 883.59 573.58 884.2 581.49C884.96 591.21 886.58 612.32 884.5 621.16C878.35 623.6 869.16 622.01 862.5 622.01C846.83 622.01 831.17 622.01 815.5 622.01C761.83 622.01 708.17 622.01 654.5 622.01C636.5 622.01 618.5 622.01 600.5 622.01C593.62 622.01 581.55 623.59 575.5 621.15C574.17 614.27 574.97 606.55 575.02 599.5C575.1 589.8 574.92 580.09 575.62 570.45C577.38 546.31 575.97 521.68 576.72 497.5C577.14 483.89 576.97 470.05 576.22 456.5C575.32 440.52 576.1 424.46 574.93 408.5C574.04 396.21 573.87 383.8 572.79 371.52C572.14 364.2 571.31 356.86 571.94 349.5C580.13 342.84 587.67 337.97 592.98 328.42C599.57 316.6 602.01 302.73 605.35 289.79C609.15 275.07 616.05 259.92 625.11 247.66C637.8 230.48 657.81 220.5 676.27 210.74C681.47 207.99 692.27 201.09 697.55 200.1C703.16 199.05 709.1 200.95 714.62 201.67C721.12 202.52 727.96 202.04 734.5 202.04C742.41 202.03 755.83 198.82 762.43 200.17C767.85 201.28 778.36 208.01 783.68 210.82C801.06 219.98 819.04 229.35 832.05 244.44C843.39 257.59 850.2 275.13 854.84 291.6C858.4 304.26 860.39 317.81 867.21 329.3C872.53 338.24 879.79 343.29 887.81 349.5ZM886.05 350.5C860.64 334.11 859.43 314.49 851.75 287.68C847.28 272.07 839.49 255.17 828.46 243.05C816.26 229.64 798.76 220.9 782.92 212.58C777.53 209.75 767.85 203.52 762.34 202.18C756.39 200.72 741.99 204.03 734.5 204.03C728.58 204.03 722.4 204.51 716.51 203.89C710.44 203.25 703.73 200.72 697.6 202.13C692.53 203.3 683.33 209.26 678.34 211.84C659.44 221.65 638.87 232.01 626.06 249.63C617.53 261.38 611.16 275.78 607.32 289.74C603.38 304.05 601.19 319.62 592.92 332.38C587.88 340.17 581.13 345.13 573.76 350.5C573.25 353.62 573.78 356.38 573.95 359.5C574.58 370.84 575.34 382.16 575.98 393.5C577.23 415.48 577.24 437.58 578.63 459.55C579.54 474.02 578.83 489.06 578.21 503.5C577.46 521.14 578.63 538.86 577.83 556.5C576.86 577.55 576.52 598.84 576.81 619.95C678.88 619.95 780.95 619.95 883.02 619.95C883.19 602.46 883.15 584.89 881.99 567.5C880.95 551.9 882.71 536.11 881.91 520.5C880.95 501.73 880.02 482.34 881 463.5C881.8 448.17 881.72 432.79 882.95 417.5C883.3 413.19 882.71 408.81 883.08 404.49C884.55 387.14 886.6 367.87 886.05 350.5ZM346.08 214.5C350.45 220.86 353.18 228.37 357.65 234.8C366.5 247.52 376.93 258.51 389.5 267.63C402.12 258.72 412.66 247.54 421.37 234.82C425.7 228.51 428.75 219.56 433.5 214.08C435.74 214.01 438.23 213.68 440.44 214.15C445.2 215.14 455.52 222.6 460.07 225.42C475.06 234.71 488.34 247.04 496.94 262.59C504.97 277.11 509.05 293.08 515.2 308.35C519.58 319.26 524.93 329.79 533.37 338.15C536.16 340.92 546.99 347.7 547.75 350.61C549.27 356.48 546.89 371.04 546.34 377.53C544.46 399.48 544.63 421.57 543.04 443.5C542.19 455.03 542.95 466.93 542.95 478.5C542.95 498.43 542.1 518.59 543.01 538.5C543.52 549.5 543.97 560.47 544.02 571.5C544.06 580.44 543.5 589.58 544.1 598.5C544.59 605.94 546.06 614.84 543.64 622.01C440.9 622.01 338.16 622.01 235.41 622.01C233.2 615.54 234.66 608.2 234.95 601.5C235.54 588.09 234.27 574.55 235.5 561.2C235.92 556.67 235.26 552.04 235.55 547.5C236.31 535.54 235.93 523.5 236.04 511.5C236.25 488.33 237.38 464.63 235.97 441.5C234.65 419.88 234.55 398.12 232.73 376.52C232.26 370.93 230.07 355.44 231.3 350.67C232.14 347.44 243.77 340.51 246.74 337.25C254.95 328.22 260.44 317.65 264.72 306.28C270.6 290.69 275.07 274.57 283.6 260.11C291.54 246.66 303.03 236.02 315.96 227.46C324.45 221.84 335.54 212.42 346.08 214.5ZM344.5 215.85C334.85 215.85 322.29 225.35 314.35 230.91C298.94 241.69 286.96 255.51 279.23 272.74C265.61 303.08 263.85 330.99 233.15 350.5C232.97 354.61 233.47 358.46 233.86 362.52C235.03 374.67 235.27 387.29 236 399.5C238 432.75 238.16 466.13 238.16 499.5C238.16 528.55 237.11 557.45 237.01 586.5C236.98 597.48 234.88 609.09 236.5 619.95C338.5 619.95 440.5 619.95 542.5 619.95C544.41 608.58 542.35 596 541.99 584.5C541.1 556.84 541.27 529.17 540.87 501.5C540.57 480.88 540.41 460.03 541.8 439.5C542.67 426.55 541.84 413.45 543.02 400.53C544.11 388.56 544.31 376.52 545.15 364.5C545.49 359.79 546.05 355.26 545.87 350.5C539.32 346.15 532.43 341.18 527.56 334.9C512.83 315.91 509 291.93 498.87 270.64C491.09 254.28 479.49 241.18 464.67 230.88C456.16 224.96 445.09 215.85 434.5 215.85C431.92 220.09 429.99 224.7 427.46 228.97C418.12 244.73 405.21 260.24 389.5 270C375.4 260.76 363.93 247.75 354.64 233.83C350.83 228.11 348.45 221.38 344.5 215.85ZM468.5 708.79C471.3 718.92 471.02 730.11 473.11 740.46C478.37 766.63 487.8 793.65 502.13 816.34C509.55 828.09 518.36 839.52 529.19 848.35C533.24 851.65 537.5 854.84 542.03 857.46C543.76 858.47 547 859.71 547.69 861.73C549.34 866.55 546.42 873.01 545.28 877.66C542.41 889.35 540.61 903.45 536.08 914.5C530.15 916.06 523.66 914.74 517.51 915.21C499.34 916.61 480.76 915.72 462.5 915.72C434.17 915.72 405.83 915.72 377.5 915.72C368.5 915.72 359.5 915.72 350.5 915.72C345.57 915.72 340.35 916.2 335.5 915.35C333.13 912.2 332.67 907.62 331.69 903.69C329.28 894.04 327.02 884.4 324.64 874.75C323.6 870.55 321.66 865.08 323.37 860.79C324.19 858.73 327.33 856.93 328.86 855.35C333.78 850.26 338.75 845.22 343.45 839.93C355.2 826.71 365.64 812.27 374.42 796.92C385.82 776.99 394.13 755.06 397.84 732.45C400.38 716.97 400.12 700.91 403.01 685.5C405.44 684.77 408.74 683.98 411.21 685.3C413.15 686.35 414.63 689.72 416.14 691.36C419.56 695.05 423.66 698.06 428.11 700.41C436.84 705.03 446.74 707.08 456.5 707.87C460.49 708.19 464.7 707.6 468.5 708.79ZM719.15 685.5C720.1 688.16 719.83 690.68 720.05 693.5C720.63 701.12 721.36 708.85 722.27 716.44C724.65 736.06 728.52 755.02 736.21 773.3C745.4 795.15 758.24 815.82 773.57 833.89C779.24 840.58 785.3 846.83 791.4 853.11C793.38 855.15 797.8 858.09 798.83 860.7C800.72 865.48 798.29 871.9 797.18 876.56C794.16 889.16 792.14 902.92 787.5 914.98C781.55 916.94 773.78 915.72 767.5 915.72C754.5 915.72 741.5 915.72 728.5 915.72C696.83 915.72 665.17 915.72 633.5 915.72C623.47 915.72 613.47 915.64 603.5 915.18C597.76 914.92 591.59 916.01 586.07 914.5C582.86 904.82 581.12 894.6 578.67 884.72C576.7 876.82 573.54 868.66 575.14 860.5C617.38 835.66 638.78 788.79 648.72 742.4C651.08 731.36 651.32 720.07 653.5 709.07C657.9 707.15 663.44 708.26 668.25 707.58C677.93 706.21 687.31 704.43 695.92 699.43C699.84 697.15 703.44 694.33 706.48 690.96C708 689.27 709.46 685.92 711.63 685.07C714.08 684.12 716.82 684.83 719.15 685.5ZM405.5 686.64C402.77 690.76 403.43 703.74 402.7 709.34C400.27 728.1 397.81 746.23 391.68 764.22C382.98 789.76 367.98 812.84 351.31 833.79C345.72 840.81 339.36 847.19 333.12 853.63C331.01 855.81 326.22 858.89 325.18 861.71C323.21 867.07 326.64 874.36 327.87 879.56C330.57 890.98 333.75 902.45 336.07 913.93C402.21 913.93 468.36 913.93 534.5 913.93C537.15 902.13 540.02 890.23 543.05 878.54C544.5 872.98 546.54 867.57 545.5 861.83C539.14 857.88 533.03 853.98 527.21 849.26C498.79 826.16 481.11 784.24 473.14 749.45C471.09 740.49 469.53 731.44 468.31 722.33C467.78 718.38 467.92 714.43 467.1 710.5C462.98 709.73 458.74 710.12 454.55 709.66C445.37 708.65 436.25 706.69 427.95 702.53C423.42 700.26 419.38 697.28 415.84 693.67C414.17 691.97 412.22 688.31 410.23 687.21C408.78 686.41 407.08 686.66 405.5 686.64ZM717.5 686.89C715.91 686.75 714.18 686.31 712.63 686.92C710.58 687.73 708.8 691.21 707.36 692.85C704.24 696.39 700.2 699.28 696.08 701.55C683.63 708.4 669.5 710.01 655.5 710.01C652.85 720.48 653.02 731.76 650.79 742.39C644.22 773.65 631.94 805.37 612.45 830.92C606.23 839.07 598.6 846.79 590.44 852.99C585.94 856.42 580.46 858.81 576.25 862.5C576.25 870.11 579.06 877.3 580.75 884.65C582.96 894.31 584.65 904.58 588 913.93C654.05 913.93 720.1 913.93 786.15 913.93C788.71 902.78 791.24 891.66 794.21 880.61C795.59 875.48 798.8 867.84 797.26 862.54C796.41 859.61 792.11 856.65 789.97 854.53C784.29 848.91 778.65 843.09 773.56 836.93C760.4 820.98 748.29 803.88 739.43 785.1C731.33 767.91 725.23 750.16 722.26 731.36C719.94 716.66 720 701.57 717.5 686.89Z" fill="#767877" fill-rule="evenodd" stroke="#767877" stroke-width="0.25" stroke-linejoin="round"/>
</svg>